<svg xmlns="http://www.w3.org/2000/svg" width="70.776" height="68.467" viewBox="0 0 70.776 68.467"><g id="Groupe_574" data-name="Groupe 574" transform="translate(-1745.123 -321.032)"><path id="Trac&#xE9;_36" data-name="Trac&#xE9; 36" d="M25.717,15.862h0q-1.411.838-2.725,1.8a31.99,31.99,0,0,0-6.067,5.846,41.65,41.65,0,0,0-2.515,3.671,35.816,35.816,0,0,0-2.738,6.3.325.325,0,0,0,.535.338c1.032-1.005,2.546-2.49,2.584-2.586a2.326,2.326,0,0,0,.133-.385A28.969,28.969,0,0,1,19.9,23.276a29.676,29.676,0,0,1,2.506-2.445A30.026,30.026,0,0,1,28.739,16.6c.483-.244.972-.472,1.469-.686l2.359-2.341a.388.388,0,0,0-.392-.643,32.489,32.489,0,0,0-6.457,2.929M72.39,32.788a.357.357,0,0,0,.6-.336,12.724,12.724,0,0,0-.346-1.329,18.6,18.6,0,0,0-2.233-4.43,31.192,31.192,0,0,0-2.626-3.685,32.446,32.446,0,0,0-8.941-7.469,32.569,32.569,0,0,0-6.706-2.858.387.387,0,0,0-.376.652l2.42,2.281c.563.226,1.123.473,1.669.733A30.414,30.414,0,0,1,62.3,20.486,29.594,29.594,0,0,1,70.075,30.6c.027.054.049.1.075.157-.022-.049-.045-.1-.063-.145l1.755,1.653Z" transform="translate(1738.07 312.722)" fill="#7f2629"></path><path id="Trac&#xE9;_37" data-name="Trac&#xE9; 37" d="M13.431,58.362c-.571-.027-.955.973-.955.973a.535.535,0,0,1-.037.1l-.99,2.356a2.881,2.881,0,0,0,2.06,3.9l2.55.606a3.061,3.061,0,0,1,1.045.466,2.9,2.9,0,0,1,.91,1.043,2.794,2.794,0,0,1,.323,1.35L18.295,71.7a2.956,2.956,0,0,0,3.374,2.921l2.6-.325a3,3,0,0,1,3.192,1.869l.911,2.381a3.034,3.034,0,0,0,4.239,1.542l2.3-1.213a3.039,3.039,0,0,1,.57-.232l-1.348-1.271-3.548-3.344a29.817,29.817,0,0,1-15.9-14.985c-.31-.647-.69-.65-1.26-.678m56.619-.022A29.758,29.758,0,0,1,54.559,73.722l-4.839,4.8a2.774,2.774,0,0,1,.494.193l2.329,1.167a3.028,3.028,0,0,0,4.206-1.62l.86-2.4a3,3,0,0,1,3.154-1.932l2.606.276a2.953,2.953,0,0,0,3.316-2.985l-.093-2.538a2.71,2.71,0,0,1,.372-1.492,2.675,2.675,0,0,1,.662-.8,2.976,2.976,0,0,1,1.185-.612l2.533-.657a2.877,2.877,0,0,0,1.982-3.939l-1.036-2.334a1.445,1.445,0,0,1-.062-.166c-.434-1.217-1.162-1.366-1.612-1.181-.334.137-.565.83-.565.83" transform="translate(1738.113 308.171)" fill="#70d44b"></path><path id="Trac&#xE9;_38" data-name="Trac&#xE9; 38" d="M76.418,39.589l-5.345-5.039a28.426,28.426,0,0,1,.19,14.262l2.7-2.677,1.591-1.579.922-.916a2.808,2.808,0,0,0-.054-4.051M42.31,71.225a31.133,31.133,0,0,1-7.383-.786l5.346,5.039a2.883,2.883,0,0,0,.721.5,2.916,2.916,0,0,0,.818.264,3.2,3.2,0,0,0,1.128-.014,2.867,2.867,0,0,0,.81-.285,2.9,2.9,0,0,0,.709-.517l5.209-5.173a31.049,31.049,0,0,1-7.359.973M12.578,35.29l-5.21,5.173a2.81,2.81,0,0,0,.055,4.051l.868.818L10,46.944l2.767,2.608a28.425,28.425,0,0,1-.19-14.262m33.822-24-.253-.238L43.569,8.626a2.989,2.989,0,0,0-1.541-.765,3.2,3.2,0,0,0-1.128.014,2.988,2.988,0,0,0-1.519.8l-2.513,2.495-.166.164-2.53,2.513a30.785,30.785,0,0,1,5.069-.861q1.136-.1,2.291-.112c.844-.011,1.684.013,2.513.068a31.035,31.035,0,0,1,4.87.718Z" transform="translate(1738.59 313.215)" fill="#ffbf3c"></path><path id="Trac&#xE9;_39" data-name="Trac&#xE9; 39" d="M67.209,30.806A26.969,26.969,0,0,0,54.877,19.182a28.149,28.149,0,0,0-24.444.309A26.915,26.915,0,0,0,18.415,31.423a25.663,25.663,0,0,0,.316,23.648A26.969,26.969,0,0,0,31.063,66.694a28.141,28.141,0,0,0,24.444-.309A26.917,26.917,0,0,0,67.525,54.453a25.661,25.661,0,0,0-.316-23.647" transform="translate(1737.66 312.328)" fill="#e04403"></path><path id="Trac&#xE9;_40" data-name="Trac&#xE9; 40" d="M32.217,56.392a16.314,16.314,0,0,1-3.85-5.511,17.617,17.617,0,0,1-1.331-6.776,16.659,16.659,0,0,1,5.009-12.387,17.392,17.392,0,0,1,12.609-5.082,21.25,21.25,0,0,1,5.68.7,19.612,19.612,0,0,1,5.172,2.246,2.17,2.17,0,0,1,.739.745,1.889,1.889,0,0,1,.268.956,2.2,2.2,0,0,1-.626,1.528l-1.595,1.743a1.9,1.9,0,0,1-1.461.658,2.4,2.4,0,0,1-1.161-.314,13.706,13.706,0,0,0-6.823-1.726,11.121,11.121,0,0,0-8.133,3.063,10.241,10.241,0,0,0-2.99,7.686,10.792,10.792,0,0,0,3.16,7.915A11.134,11.134,0,0,0,44.924,54.7,14.306,14.306,0,0,0,48.4,54.3a8.582,8.582,0,0,0,2.756-1.256l-.05-6.37-4,.076a2.107,2.107,0,0,1-1.578-.565,2.05,2.05,0,0,1-.639-1.542l-.014-1.824a2.039,2.039,0,0,1,.6-1.528,2.142,2.142,0,0,1,1.556-.612l8.535-.065a2.144,2.144,0,0,1,1.565.588,2.044,2.044,0,0,1,.627,1.518l.1,13.041a1.749,1.749,0,0,1-.171.764,1.83,1.83,0,0,1-.48.627,19.234,19.234,0,0,1-5.71,3.067,21.26,21.26,0,0,1-6.577,1.042,17.579,17.579,0,0,1-12.712-4.866" transform="translate(1736.506 311.302)" fill="#7f2629"></path><path id="Trac&#xE9;_41" data-name="Trac&#xE9; 41" d="M32.156,54.564a16.314,16.314,0,0,1-3.85-5.511,17.617,17.617,0,0,1-1.331-6.776,16.659,16.659,0,0,1,5.009-12.387,17.392,17.392,0,0,1,12.609-5.082,21.25,21.25,0,0,1,5.68.7,19.583,19.583,0,0,1,5.172,2.246,2.171,2.171,0,0,1,.739.745,1.889,1.889,0,0,1,.268.956,2.2,2.2,0,0,1-.626,1.528l-1.595,1.743a1.9,1.9,0,0,1-1.461.658,2.4,2.4,0,0,1-1.161-.314,13.706,13.706,0,0,0-6.823-1.726A11.121,11.121,0,0,0,36.654,34.4a10.241,10.241,0,0,0-2.99,7.686A10.793,10.793,0,0,0,36.824,50a11.134,11.134,0,0,0,8.039,2.871,14.307,14.307,0,0,0,3.472-.407,8.582,8.582,0,0,0,2.756-1.256l-.05-6.37-4,.076a2.107,2.107,0,0,1-1.578-.565,2.05,2.05,0,0,1-.639-1.542l-.014-1.824a2.039,2.039,0,0,1,.6-1.528,2.142,2.142,0,0,1,1.556-.612l8.535-.065a2.144,2.144,0,0,1,1.565.588,2.044,2.044,0,0,1,.627,1.518l.1,13.041a1.749,1.749,0,0,1-.171.764,1.83,1.83,0,0,1-.48.627,19.234,19.234,0,0,1-5.71,3.067,21.26,21.26,0,0,1-6.577,1.042,17.579,17.579,0,0,1-12.712-4.866" transform="translate(1736.513 311.488)" fill="#fff"></path><path id="Trac&#xE9;_42" data-name="Trac&#xE9; 42" d="M65.306,29.891A1.093,1.093,0,1,1,66.4,28.8a1.093,1.093,0,0,1-1.093,1.093m0-2.047a.954.954,0,1,0,.954.954.951.951,0,0,0-.954-.954m.3,1.584-.325-.495h-.237v.495h-.155V28.173H65.4a.373.373,0,0,1,.387.382.367.367,0,0,1-.32.371l.335.5ZM65.4,28.318h-.356v.464H65.4a.232.232,0,0,0,0-.464" transform="translate(1732.728 311.193)" fill="#fff"></path><path id="Trac&#xE9;_43" data-name="Trac&#xE9; 43" d="M35.019,66.481l-.058.034c-.026.014-.053.028-.082.04a.4.4,0,0,1-.084.03.1.1,0,0,1-.071-.006.04.04,0,0,1-.019-.02.691.691,0,0,0-.093-.127.483.483,0,0,0-.131-.1.309.309,0,0,0-.166-.037.2.2,0,0,0-.072.017.077.077,0,0,0-.026.131,1.076,1.076,0,0,0,.1.129q.066.073.143.154a1.135,1.135,0,0,1,.134.172.512.512,0,0,1,.074.185.278.278,0,0,1-.033.189.476.476,0,0,1-.063.086.581.581,0,0,1-.084.078.436.436,0,0,1-.1.057.239.239,0,0,1-.1.022A.991.991,0,0,1,34,67.455a1.946,1.946,0,0,1-.321-.139c-.031-.017-.067-.039-.107-.064a1.214,1.214,0,0,1-.111-.077.709.709,0,0,1-.082-.072c-.021-.022-.027-.04-.021-.051a.022.022,0,0,1,.009-.011c.04-.04.078-.08.115-.12a.716.716,0,0,0,.094-.134.028.028,0,0,1,.033,0,.041.041,0,0,1,.016.013l.012.014,0,.036.01.018a.914.914,0,0,0,.113.119.646.646,0,0,0,.118.082.375.375,0,0,0,.233.057.172.172,0,0,0,.139-.079.162.162,0,0,0,0-.132.448.448,0,0,0-.136-.174,1.041,1.041,0,0,1-.173-.181.627.627,0,0,1-.093-.172.391.391,0,0,1-.022-.156.311.311,0,0,1,.148-.251.4.4,0,0,1,.169-.059.662.662,0,0,1,.211.012.834.834,0,0,1,.239.092.641.641,0,0,1,.126.088,1.446,1.446,0,0,1,.105.105c.034.037.066.075.1.114s.065.077.1.114Zm-1.587.579.025.015.023.018.018-.013a.156.156,0,0,0-.027-.019c-.013-.009-.021-.015-.022-.021ZM33.486,67a.156.156,0,0,1,.032.021l-.02-.031Zm.05-.055a.663.663,0,0,1,.071.067.359.359,0,0,0,.087.062.24.24,0,0,0-.019-.037A.335.335,0,0,1,33.658,67l-.024-.015-.035-.022-.033-.022a.047.047,0,0,1-.018-.017Zm.04-.06.031.017-.017-.036Zm.12.286a.119.119,0,0,0,.018.013l.014.007a.188.188,0,0,0,.04.019L33.8,67.2l.027.005-.031-.011a.112.112,0,0,1-.025-.01.094.094,0,0,1-.026-.021.132.132,0,0,1-.033-.012l-.031-.017-.039-.022a.285.285,0,0,0,.029.027.155.155,0,0,1,.029.034m.34.19a1.243,1.243,0,0,1-.152-.036.955.955,0,0,1-.144-.057.243.243,0,0,0,.038.023.478.478,0,0,0,.127.048.886.886,0,0,0,.131.022m-.1-.2-.036-.018a.241.241,0,0,1-.031-.015l-.057-.032c-.019-.011-.037-.022-.055-.035l.023.049.076.027.078.024m-.049-.865a.077.077,0,0,0,0,.025l.007.023,0-.027Zm.024.967a1.74,1.74,0,0,0,.218.05,2.2,2.2,0,0,0,.223.022l-.034-.033c-.019-.018-.026-.03-.022-.037s.01,0,.025,0a.052.052,0,0,0,.033-.009.042.042,0,0,1-.022.007h-.025a.077.077,0,0,0-.027.01l-.016.014a.121.121,0,0,1-.017.013.042.042,0,0,1-.029,0,.579.579,0,0,1-.154-.005c-.048-.009-.1-.017-.153-.024m.076-.918a.164.164,0,0,1-.015-.048.5.5,0,0,1-.007-.053.065.065,0,0,0-.007.06.139.139,0,0,0,.03.04m0,.1L34,66.46l-.023-.032Zm.135-.3a.12.12,0,0,0-.071.013.122.122,0,0,0-.051.051.1.1,0,0,0-.008.081A.186.186,0,0,1,34,66.245a.058.058,0,0,1,.026-.027l.031-.012.031-.013a.073.073,0,0,0,.027-.028Zm-.076-.039L34,66.075l.03.026-.008.032Zm.132.542a.777.777,0,0,1-.066-.076.342.342,0,0,0-.069-.07.719.719,0,0,0,.065.075l.071.071m.156.779c-.074,0-.147,0-.222-.006.038.005.074.009.11.013a.44.44,0,0,0,.112-.006m-.187-.92,0,.009.005.009Zm.013-.42a.053.053,0,0,0,.018-.021l.012-.022a.035.035,0,0,1,.032-.015v-.017a.027.027,0,0,0-.034.014l-.009.015a.052.052,0,0,1-.022.023Zm0,.143.05-.019.053-.017a.294.294,0,0,0-.049,0,.128.128,0,0,0-.045.008Zm.123.514a.27.27,0,0,1-.036-.045.378.378,0,0,0-.034-.043l-.038,0,.047.061a.109.109,0,0,1,.031.013Zm.408-.592a.75.75,0,0,0-.164-.119.781.781,0,0,0-.327-.1v.017a.807.807,0,0,1,.138.033.78.78,0,0,1,.137.058.564.564,0,0,1,.087.057l.065.025a.541.541,0,0,0,.063.025m-.489.124,0,0,0,0,0,0,0,0m.042-.138-.006,0h-.006a.019.019,0,0,1,.013,0m.072.854a.205.205,0,0,1-.022.1.144.144,0,0,1-.034.044.332.332,0,0,0,.041-.027.1.1,0,0,0,.029-.033.084.084,0,0,0-.013-.086m.03.2a.085.085,0,0,0,.039-.029l-.021-.011a.547.547,0,0,1-.056.041l.009,0Zm.087-.3-.023-.013a.11.11,0,0,1,.021.024Zm-.008.235a.1.1,0,0,0,.026-.029.043.043,0,0,0,0-.044c-.008-.014-.018-.031-.029-.053a.262.262,0,0,1,0,.033c0,.01,0,.021,0,.031l.008,0-.005,0,0,.005,0,0,0,0,.005-.011,0,.028Zm.013-.053,0,0,0-.005,0,0,0,0Zm.006-.239.022.028h.017l-.033-.039Zm.011-.625.009,0,.008,0h.007Zm.107.952a.775.775,0,0,1-.1.119l.048-.028a.117.117,0,0,0,.037-.041.115.115,0,0,0,.011-.049m-.036-.2a.186.186,0,0,0-.042-.033.069.069,0,0,0,.011.032.182.182,0,0,0,.023.029Zm.062,0L34.5,66.9v.013c.009.008.022.017.038.03a.071.071,0,0,1,.03.038Zm-.078-.739a.255.255,0,0,0,.053.045.235.235,0,0,1,.051.048l0,0,.005-.01a.154.154,0,0,0-.035-.04.277.277,0,0,0-.045-.03Zm.051.849.005,0a.034.034,0,0,1,.021.031l.027.012a.135.135,0,0,1,0-.053.1.1,0,0,0,0-.055l-.016,0Zm.109-.808L34.6,66.2l-.011.013a.359.359,0,0,1,.04.031c.013.011.024.023.038.037Zm.083-.06a.024.024,0,0,1,0,.014.018.018,0,0,1-.022.008.1.1,0,0,1-.03-.011.6.6,0,0,0,.048.048l.051.043.015-.028-.042-.029c-.013-.008-.018-.023-.015-.046m-.024.145.037.053a.5.5,0,0,0,.04.051.192.192,0,0,0-.032-.055.474.474,0,0,0-.045-.049m.063.179a.131.131,0,0,1-.019-.02l-.015-.022a.154.154,0,0,0,.024.049l.026-.005Zm.027,0a.022.022,0,0,0,.018,0,.028.028,0,0,1,.016-.009l-.016-.013c-.018.015-.033.019-.047.011l0,0,0,0Zm.027-.129.028.057c.012.022.015.037.012.044l0,0,.035-.01-.005-.02a.078.078,0,0,0-.013-.049.186.186,0,0,0-.036-.04Zm.116.04-.006,0-.005-.005,0,.012Z" transform="translate(1735.864 307.31)" fill="#fff"></path><path id="Trac&#xE9;_44" data-name="Trac&#xE9; 44" d="M36.758,67.037a.18.18,0,0,1,0,.069.344.344,0,0,1-.021.073c-.022.058-.043.108-.064.152s-.04.091-.059.14c-.047.119-.091.238-.133.358s-.083.242-.121.363l.031.008.031.01a.239.239,0,0,1,.054.031l.038-.007.023.022a.961.961,0,0,1-.022.119.625.625,0,0,0-.021.12l-.02.017c-.018,0-.049-.01-.092-.021s-.091-.023-.143-.039l-.157-.048q-.081-.026-.14-.049a.326.326,0,0,1-.108-.058l-.005,0a.076.076,0,0,1-.016-.048.411.411,0,0,1,0-.074.586.586,0,0,1,.015-.079.65.65,0,0,1,.022-.066A.085.085,0,0,1,35.869,68l.032,0,.013.015a.176.176,0,0,1,.083.011.294.294,0,0,0,.081.016q.012-.049.027-.1c.01-.032.021-.066.034-.1l.007-.019a.121.121,0,0,1,.013-.023v-.038c.019-.049.04-.1.064-.148s.047-.1.066-.154a.589.589,0,0,0,.04-.155.49.49,0,0,1,.032-.136.121.121,0,0,1,.014-.029h-.045l-.017-.022-.014-.019-.022-.008a.357.357,0,0,1,.019-.084c.01-.028.02-.057.029-.086l.009-.005.007-.035-.005,0c-.013-.005-.015-.017-.008-.037a.021.021,0,0,1,.022-.012.139.139,0,0,1,.041,0l.049.016.048.019.164.065.057.019a.482.482,0,0,1,.06.021c.023.009.032.022.025.04s-.017.019-.034.014m-.85,1.231-.01-.015,0-.02.031-.031-.034-.01.014-.053a.164.164,0,0,0,.037.011l0-.014-.041-.016c-.009.022-.016.045-.023.068a.178.178,0,0,0-.009.071Zm.2.119-.075-.051-.069,0Zm.04-.263-.059-.033.052.021,0,.008Zm.023.1v.01a.217.217,0,0,1,.045.023v-.018l0-.018-.039-.014Zm.031-.242c0-.013.009-.025.014-.038s.01-.025.016-.04c.017-.045.032-.092.046-.138s.024-.093.033-.137a.139.139,0,0,0-.019.04c-.008.021-.017.048-.027.079s-.02.062-.028.093-.016.059-.022.085a.564.564,0,0,0-.013.057m.049.32v0l0,0,0,0-.02.035a.332.332,0,0,1,.05.017l.049.019a.055.055,0,0,1-.013-.015l-.009-.018.013-.017Zm.04-.173a.128.128,0,0,1-.04.056l.024,0Zm.15.338a.2.2,0,0,1-.038-.007l-.04-.012-.04.013c.018,0,.042,0,.071.006a.274.274,0,0,1,.07.014v-.022Zm-.1-1.4a.137.137,0,0,1,.037.008l.038.013-.084-.046,0,0Zm-.009.873c.018-.066.039-.129.061-.193a1.773,1.773,0,0,0,.058-.193c-.021.064-.043.128-.065.192a1.568,1.568,0,0,0-.055.194m.108-.924L36.426,67l-.047-.018-.02-.008,0,.005A.306.306,0,0,1,36.4,67a.168.168,0,0,0,.044.013m.2-.014.039.013c0,.01,0,.022,0,.034v.034l.014.033c-.028.1-.06.2-.1.3s-.076.2-.115.3l-.02-.007c-.014.048-.031.1-.048.146a1.028,1.028,0,0,0-.04.15c.008-.022.022-.058.044-.108l.071-.178c.026-.066.053-.137.08-.212s.051-.145.073-.208a1.448,1.448,0,0,0,.045-.167.145.145,0,0,0,0-.091l.012-.023Zm-.189.288-.01.024a.812.812,0,0,0-.034.117c-.009.041-.019.079-.03.112q.024-.062.051-.124c.019-.041.036-.083.052-.124Zm-.013-.624a.062.062,0,0,1,0-.05.092.092,0,0,1,.044-.045.228.228,0,0,1,.077-.023.4.4,0,0,1,.093,0,.342.342,0,0,1,.092.022.267.267,0,0,1,.1.075.121.121,0,0,1,.015.129.1.1,0,0,1-.049.053.224.224,0,0,1-.08.023.364.364,0,0,1-.093,0,.438.438,0,0,1-.09-.024.267.267,0,0,1-.1-.06.077.077,0,0,1-.017-.086Zm.028.057a.2.2,0,0,0,.1.071.405.405,0,0,0,.077.022.345.345,0,0,0,.079,0A.181.181,0,0,0,36.8,66.8a.081.081,0,0,0,.039-.044l.005-.013-.037.013,0,.013-.013.022a.181.181,0,0,1-.094.006.466.466,0,0,1-.18-.06.507.507,0,0,1-.042-.03Zm.131.5.013-.063c.005-.021.009-.041.013-.063l-.005.013a.342.342,0,0,0-.014.046c0,.015-.009.031-.014.045l-.012.021Zm.034-.541-.017,0,.012.011,0,0Z" transform="translate(1735.614 307.246)" fill="#fff"></path><path id="Trac&#xE9;_45" data-name="Trac&#xE9; 45" d="M37.779,68.969l-.032-.018v-.006c.023-.084.049-.164.076-.243s.052-.161.075-.244a1.759,1.759,0,0,0,.044-.2,1.873,1.873,0,0,1,.045-.206c.008-.028.016-.056.025-.084s.018-.057.026-.087c.016-.057.03-.115.041-.174s.021-.119.028-.181v-.012a.027.027,0,0,1,.014-.019.028.028,0,0,1,.019,0c.01,0,.017.012.023.027a.513.513,0,0,1,.143.021c.046.014.093.027.141.038l.028.023c-.006.014-.013.022-.02.022a.115.115,0,0,0-.024,0,.05.05,0,0,0-.025.015.135.135,0,0,0-.025.055c-.006.024-.013.048-.018.071a.313.313,0,0,0-.009.047l.012,0a.241.241,0,0,0,.028-.023.085.085,0,0,1,.031-.02l0-.009a1.517,1.517,0,0,1,.246-.061.585.585,0,0,1,.25.014.924.924,0,0,1,.172.072.852.852,0,0,1,.166.116.4.4,0,0,1,.114.184.831.831,0,0,1,.033.242,1.43,1.43,0,0,1-.024.271c-.017.094-.038.187-.061.279s-.048.178-.071.26-.043.155-.057.216l.028.011-.014.05-.005,0a.046.046,0,0,1-.015,0c-.005,0-.008,0-.01,0l0,0-.054-.009V69.4l-.014,0A.293.293,0,0,1,39,69.341l-.056-.022-.032.005.006-.022-.008,0-.056,0-.025-.031a.747.747,0,0,0,.052-.121c.013-.041.028-.083.044-.124s.039-.11.058-.164.037-.11.052-.165.025-.1.034-.155a.642.642,0,0,0,.006-.155.54.54,0,0,0-.118-.3.358.358,0,0,0-.189-.128l-.164.02a.814.814,0,0,0-.143.11,1.653,1.653,0,0,1-.136.118.2.2,0,0,0-.019.045c0,.015-.009.033-.015.054-.013.049-.026.1-.037.16s-.022.119-.034.181-.022.121-.033.181-.024.113-.038.163c0,.01-.007.022-.013.037l-.016.049a.4.4,0,0,1-.016.041c-.005.012-.009.017-.011.017l-.018-.008a.164.164,0,0,0-.023-.01l-.1-.014a.824.824,0,0,1-.1-.021L37.8,69.06a.1.1,0,0,1-.047-.03l0-.027.015-.022Zm.03.048.02.017a.062.062,0,0,0,.024.013Zm.019-.091a.057.057,0,0,0,.033.057c.01-.033.021-.08.035-.139s.027-.123.041-.188.026-.128.036-.19.017-.109.021-.144l-.155.541a.039.039,0,0,1,.006.031.04.04,0,0,1-.008.018l-.01.013m.111.1c0-.013,0-.026,0-.042l-.027.031Zm.009-.231-.007.06.021-.054Zm.084.02v-.042l-.006.022q-.008.028-.013.057c0,.019-.005.037-.006.055Zm.086-.32,0,.094.025-.089Zm.058-.13c.011-.048.022-.093.033-.137s.024-.091.037-.137l0-.015c-.008.022-.016.042-.023.063s-.015.044-.022.067a.635.635,0,0,0-.022.159m.034-.353.007-.022a.091.091,0,0,0,.007-.019.271.271,0,0,0,.012-.075c0-.022,0-.049,0-.083,0,.019-.006.038-.009.056a.541.541,0,0,0-.007.057h.006l0,.011,0,.011a.206.206,0,0,0-.009.064m.023-.392a.03.03,0,0,0,.008-.013.025.025,0,0,1,.012-.012l-.027,0,.007.026m.073.083-.008.073.025-.013c0-.01,0-.02,0-.031a.238.238,0,0,1,.007-.03l0-.013.005-.013Zm.024.382a.06.06,0,0,0,.013-.014.021.021,0,0,1,.011-.013l-.02,0Zm.027-.433a.181.181,0,0,0,.015-.024.075.075,0,0,1,.018-.02l-.042,0,.008.022a.047.047,0,0,1,0,.025m.058.283-.042.051.049-.022Zm.029-.028a.046.046,0,0,0-.016.016Zm.225-.072h.068l0-.013-.033,0a.1.1,0,0,0-.032.01m.188-.07h-.045a.263.263,0,0,0-.043.006.3.3,0,0,1,.084.008Zm.076.111a.163.163,0,0,0-.045-.028c-.017-.006-.033-.013-.05-.017Zm.023,1.168a.169.169,0,0,0,.014-.029.249.249,0,0,0,.013-.035c0-.013,0-.02,0-.021Zm.022.252.061.013.058.011,0-.005,0-.049-.023.039-.052-.021a.352.352,0,0,1,.013-.068l.019-.066.025-.089c-.009.018-.018.034-.027.049l-.026.05a.151.151,0,0,1,0,.028l-.008.028h-.012l0,0Zm.115-1.083a.215.215,0,0,0-.032-.092.567.567,0,0,0-.067-.077c.02.03.038.058.053.085s.031.056.047.084m.1-.137a.636.636,0,0,0-.031-.084.168.168,0,0,0-.036-.052.316.316,0,0,0-.052-.04L39,67.855a.257.257,0,0,1,.027.04c.008.013.014.027.022.04a.775.775,0,0,1,.083.06.281.281,0,0,1,.062.079m-.161,1.278a.161.161,0,0,0,.052.023l-.006-.01Zm.105-1.264a.347.347,0,0,0-.091-.094l.087.127Zm-.011.039,0,.007Zm.027-.274.078.091c.025.031.05.063.074.1a.5.5,0,0,0-.152-.187m.009,1.354c.006-.014.011-.027.015-.038l.013-.039c.008-.031.015-.063.021-.093s.011-.061.015-.092l-.035.13c-.011.043-.021.087-.029.131m.006-.34a.085.085,0,0,1,0-.029.031.031,0,0,0,0,.029m.066.046,0-.022c0-.013,0-.025,0-.039a.443.443,0,0,1,.011-.051c-.008.022-.014.039-.019.052l-.012.035-.005.02Zm0,0,0,0Zm.052-.426a.78.78,0,0,0,.015-.09.291.291,0,0,0,0-.068.409.409,0,0,0-.013-.068c-.007-.023-.015-.053-.026-.088a.933.933,0,0,0,.011.159,1.015,1.015,0,0,1,.012.155m.03.1-.028.1.015-.011Z" transform="translate(1735.418 307.15)" fill="#fff"></path><path id="Trac&#xE9;_46" data-name="Trac&#xE9; 46" d="M41.5,68.7c-.03,0-.062.011-.1.019a.3.3,0,0,0-.093.035.286.286,0,0,0-.077.068.831.831,0,0,0-.077.105,1.018,1.018,0,0,0-.062.115.341.341,0,0,0-.019.278.392.392,0,0,0,.081.136.631.631,0,0,0,.128.107c.049.032.1.064.153.094a.734.734,0,0,0,.155.009.934.934,0,0,0,.185-.025.651.651,0,0,0,.167-.064.243.243,0,0,0,.105-.111l0-.006a.071.071,0,0,1,.021-.029l.018.013c.009.006.013.012.013.015v0a.167.167,0,0,0,.046.054c.018.013.037.028.055.043a.243.243,0,0,1,.049.052.14.14,0,0,1,.022.075l-.031.023v.023a.406.406,0,0,1-.13.083c-.049.019-.1.039-.141.06-.022.012-.042.023-.062.036a.188.188,0,0,1-.063.027.324.324,0,0,1-.074.009h-.075l-.2,0a.782.782,0,0,1-.147-.012.692.692,0,0,1-.128-.037c-.045-.018-.1-.043-.167-.076a.356.356,0,0,1-.108-.086.761.761,0,0,1-.093-.13.721.721,0,0,1-.065-.146.429.429,0,0,1-.022-.136,1.012,1.012,0,0,0,0-.139.807.807,0,0,1,.01-.142,1.26,1.26,0,0,1,.037-.137,1.172,1.172,0,0,1,.067-.166.938.938,0,0,1,.1-.155.338.338,0,0,1,.128-.1q.069-.03.135-.062a.511.511,0,0,1,.141-.042,1.487,1.487,0,0,1,.179-.01,1.226,1.226,0,0,1,.181.017,1.042,1.042,0,0,1,.3.1.656.656,0,0,1,.232.2l.047.062a.091.091,0,0,1,.021.067.065.065,0,0,1-.036.045.238.238,0,0,0-.053.036.257.257,0,0,0-.037.039c-.013.016-.026.032-.04.048a.236.236,0,0,1-.043.038.06.06,0,0,1-.042.012A.1.1,0,0,1,42.024,69c-.018-.02-.038-.042-.057-.067s-.039-.049-.058-.073a.271.271,0,0,0-.057-.053.66.66,0,0,0-.172-.069c-.062-.016-.123-.03-.183-.04m-.714.481.031.008.007-.043-.035-.005Zm.039.12c0,.014,0,.028,0,.04a.085.085,0,0,0,.005.034l.018-.014a.038.038,0,0,1-.012-.028.233.233,0,0,1,0-.032Zm0-.357a.909.909,0,0,0,.041-.1c.013-.035.026-.069.041-.1a.994.994,0,0,0-.047.1.824.824,0,0,0-.036.1m.026.517a.025.025,0,0,1-.012-.02Zm.033.047a.117.117,0,0,0,.011.028l0-.018Zm.016-.225v.009l0-.023Zm0-.258.008-.019q.007-.016.016-.035t.027-.049l-.031.05a.153.153,0,0,0-.02.052m.272.736-.105-.093c-.033-.03-.069-.059-.109-.088a.313.313,0,0,0,.041.075l.014,0c.024.022.049.042.073.061a.24.24,0,0,0,.085.043m-.128-.86a.622.622,0,0,0-.038.1q-.015.057-.024.111c.011-.037.022-.073.034-.107a.677.677,0,0,0,.028-.108m.04.561a.4.4,0,0,1-.063-.136,1.133,1.133,0,0,1-.025-.146l0,.01,0,.009a.254.254,0,0,0,.021.14.486.486,0,0,0,.075.123m-.053.029a.314.314,0,0,0,.013.041.172.172,0,0,0,.021.04l.025.013.012-.016Zm.25-.908a.265.265,0,0,0-.06.019.57.57,0,0,0-.071.034.485.485,0,0,0-.063.043.131.131,0,0,0-.039.048c.04-.032.076-.06.11-.084a.424.424,0,0,1,.123-.059m-.214-.031a.539.539,0,0,1,.117-.057c.041-.015.084-.028.125-.039l.012-.013.045-.019a.681.681,0,0,0-.159.043.513.513,0,0,0-.139.084m.07.269-.027.013-.015.023a.057.057,0,0,0-.011.027Zm.226-.317c-.041.009-.082.018-.122.029a.477.477,0,0,0-.113.047.511.511,0,0,1,.118-.036c.041-.007.084-.013.126-.017Zm-.176.218.016-.009h-.009Zm.014.889.023.007L41.2,69.6Zm.24-.991a.7.7,0,0,0-.106.022.415.415,0,0,0-.1.041l0,.006a.493.493,0,0,1,.1-.036.519.519,0,0,0,.1-.034M41.3,69.875l.007,0-.067-.012ZM41.25,69.7a.216.216,0,0,0,.055.023.715.715,0,0,0,.07.016.249.249,0,0,0,.077.005l-.1-.022a.733.733,0,0,1-.1-.023m.389.092a.961.961,0,0,1-.151.009,1.507,1.507,0,0,0-.155.005s0,.006.011.007a.693.693,0,0,0,.149,0c.051-.005.1-.012.146-.02m.144-1.227-.052-.01c-.045-.007-.089-.013-.132-.018s-.087-.009-.133-.013v.005l.039.012.04.008a.778.778,0,0,0,.118.012l.122,0m-.282-.1a1.137,1.137,0,0,1,.2.017l.04.007c-.021-.007-.04-.014-.061-.02a.623.623,0,0,0-.062-.013.516.516,0,0,0-.116-.005Zm.146,1.384c-.022,0-.044.005-.065.009a.365.365,0,0,1-.061.007.639.639,0,0,0,.069,0l.071-.006a.033.033,0,0,1-.014-.005m.029-.147a.738.738,0,0,0,.086-.019.474.474,0,0,0,.082-.031c-.03.008-.058.018-.084.028a.439.439,0,0,1-.084.022m.289.059a1.29,1.29,0,0,1-.13.042c-.044.012-.087.024-.129.039l.026.019.032,0,.032,0h-.005c-.006,0-.009,0-.008,0s.005-.006.016-.009l.036-.006a.3.3,0,0,1,.04-.006l.03,0,.029-.01.009-.037Zm-.2-1.1-.029-.008Zm.2-.021-.019-.005a.071.071,0,0,0-.019,0,.4.4,0,0,0-.049-.005l-.049,0a.914.914,0,0,1,.169.081.264.264,0,0,1,.112.144.006.006,0,0,0,0,.007c.008,0,.013,0,.013-.007a.323.323,0,0,0-.019-.061.209.209,0,0,0-.036-.054.067.067,0,0,1-.028-.011.027.027,0,0,1-.014-.022.257.257,0,0,0-.045-.018c-.019-.006-.027-.018-.023-.035Zm.183.936-.006.017c-.04.026-.081.05-.122.072s-.083.043-.126.063c.008,0,.028-.013.058-.026l.094-.042.087-.039.042-.016Zm-.181.019-.036.02.009,0Zm-.006-.8a.06.06,0,0,0,.015.014l.016.012Zm.1.111.007-.011a.262.262,0,0,0-.051-.047Zm.021.071.028-.028-.006-.013-.03.033Zm.022.569.006,0,0,0Zm.056-.643.008-.025-.008.02v.005m.051.753-.013-.024a.106.106,0,0,0-.015-.022v.032l.006.015Z" transform="translate(1735.112 307.06)" fill="#fff"></path><path id="Trac&#xE9;_47" data-name="Trac&#xE9; 47" d="M45.17,69.1c.015,0,.022.012.021.031l0,.008,0,.009,0,0a.042.042,0,0,1,.009.03.081.081,0,0,1-.032.048.566.566,0,0,1-.068.047c-.025.015-.049.029-.072.04l-.047.024v.005l0,0q-.226.119-.447.245t-.447.246c.023.023.047.045.068.065a.3.3,0,0,0,.073.051l.027,0a.692.692,0,0,0,.068.014.769.769,0,0,0,.081.01,1.334,1.334,0,0,0,.181,0,.85.85,0,0,0,.183-.027.444.444,0,0,0,.152-.069.232.232,0,0,0,.09-.122l0-.006a.051.051,0,0,1,.017-.027l.02.011c.01,0,.014.009.014.013v0a.144.144,0,0,0,.049.049l.06.039a.259.259,0,0,1,.052.047.13.13,0,0,1,.028.07.041.041,0,0,1,.012.031.074.074,0,0,1-.031.048.415.415,0,0,1-.066.047l-.074.04-.048.026a1.047,1.047,0,0,1-.321.128,1.185,1.185,0,0,1-.364.029.85.85,0,0,1-.332-.1.53.53,0,0,1-.233-.248.983.983,0,0,1-.076-.224.794.794,0,0,1-.013-.235.975.975,0,0,1,.025-.14,1.112,1.112,0,0,1,.053-.166.831.831,0,0,1,.084-.155.315.315,0,0,1,.115-.107c.044-.023.087-.049.13-.075a.4.4,0,0,1,.137-.052,1,1,0,0,1,.168-.022,1.392,1.392,0,0,1,.192,0,1.433,1.433,0,0,1,.174.027.806.806,0,0,1,.159.053.754.754,0,0,1,.136.082.423.423,0,0,1,.1.112.059.059,0,0,1,.009.032Zm-1.433.329c0-.015,0-.03,0-.043a.264.264,0,0,1,.006-.043.3.3,0,0,0-.012.045.374.374,0,0,1-.008.046Zm.006.331a.356.356,0,0,0,.015.059q.009.027.022.054l0,0,0,0Zm.045-.532a.373.373,0,0,1,.055-.088l0-.017a.292.292,0,0,0-.03.051l-.027.054m.057.523a.249.249,0,0,1-.014-.07l-.021-.037a.546.546,0,0,0,.013.057.139.139,0,0,0,.022.05m.138.242,0-.014-.033-.042-.034-.039H43.9Zm.078-.838a.266.266,0,0,0-.117.137.779.779,0,0,0-.045.179l.013,0q.013-.051.027-.089a.593.593,0,0,1,.032-.074.792.792,0,0,1,.039-.072c.014-.024.031-.049.051-.076m-.089-.063a.58.58,0,0,1,.13-.1,1.051,1.051,0,0,1,.152-.067,1.625,1.625,0,0,0-.169.058.461.461,0,0,0-.147.093Zm.352.468-.061.027-.1.05-.11.055a.741.741,0,0,1-.079.036l.022.022a1.423,1.423,0,0,1,.163-.1c.053-.029.109-.058.169-.088m-.349-.106q.092-.027.191-.067c.066-.026.134-.056.2-.087s.131-.066.194-.1l.18-.1a.188.188,0,0,0-.056-.024.5.5,0,0,0-.068-.011,1.037,1.037,0,0,0-.13,0,1.3,1.3,0,0,0-.134.013.6.6,0,0,0-.12.031.309.309,0,0,0-.1.052.288.288,0,0,0-.05.06c-.016.025-.031.051-.046.079a.656.656,0,0,0-.037.082l-.028.075m.016.652.044.033-.01-.018Zm.054-.041c0,.013.009.025.031.036a.363.363,0,0,0,.084.028c.034.008.072.015.112.021s.08.01.115.013l.071.005H44.5l-.021,0a.758.758,0,0,1-.191-.042.8.8,0,0,0-.183-.044.1.1,0,0,0-.047-.029.213.213,0,0,1-.05-.021Zm-.009-.267a2.11,2.11,0,0,0,.328-.164l.313-.192c-.109.059-.217.117-.325.171a2.544,2.544,0,0,0-.315.186m.286.287.032.008-.006-.03A.7.7,0,0,1,44.185,70a.932.932,0,0,1-.138-.108,1.123,1.123,0,0,0,.116.111.394.394,0,0,0,.144.072Zm-.119-1.08a.584.584,0,0,0-.053.027l-.05.033.005,0,.1-.043Zm.1.475a.693.693,0,0,0,.067-.026l.068-.028,0-.006a.349.349,0,0,1-.066.034.693.693,0,0,1-.067.026m.2-.538.04-.022-.035.01-.038.01Zm.027.069-.018,0-.018.01Zm.2,1.038a.436.436,0,0,0,.041-.03.374.374,0,0,1,.038-.031c-.042.013-.088.026-.135.038s-.094.019-.14.025a.277.277,0,0,0,.046.01.519.519,0,0,0,.15-.013m-.162-1.138.031,0,.063-.012.064-.013.038-.009Zm.105-.013-.035.005-.031.009h.037l.037,0Zm.058.271a.714.714,0,0,1-.122.076.32.32,0,0,0,.066-.031.3.3,0,0,0,.056-.046m-.017-.274-.036,0-.036.005h.036l.017,0,.018,0Zm.114.123A.628.628,0,0,0,44.744,69l-.086-.013c.027.013.053.025.078.04l.078.039-.155.018Zm.011.042a.049.049,0,0,1-.018-.037.071.071,0,0,1,.016-.039.065.065,0,0,0,.013-.022s0-.005-.008-.006h-.009c.007.006.011.012.01.015s-.005.013-.014.019l-.03.019-.031.018c-.009.006-.014.012-.014.017a.009.009,0,0,0,0,.01l.04-.011.025.022Zm-.037-.122,0-.014-.031,0Zm.119.367a.284.284,0,0,0-.062.031c-.019.013-.039.025-.059.037Zm.132.577q-.057.032-.1.059a.683.683,0,0,0-.09.071.3.3,0,0,0,.073-.035A.808.808,0,0,0,45,69.93l.021,0a.124.124,0,0,0,.028-.043M44.88,68.9l.031.019.031.016a.475.475,0,0,0-.062-.035m.014,1.229.015,0a.018.018,0,0,0-.015,0m.27-.213-.024-.024a.148.148,0,0,0-.025-.021.1.1,0,0,1-.019.049.356.356,0,0,1-.041.051.511.511,0,0,1-.052.047l-.046.033.015,0a.462.462,0,0,0,.045-.034l.05-.039.045-.031a.059.059,0,0,1,.024-.013h.013l.007-.007.008-.008m-.126-.738a.027.027,0,0,1-.019-.031l0,0,0,0v0l-.013.016a.092.092,0,0,1,0,.029v.009Zm-.009.628-.009.011-.005.011h0l.012,0,.011-.013Zm.041-.761c.005.012.009.023.013.034a.328.328,0,0,1,.01.038l-.019.047a.052.052,0,0,0,.021-.013l.014-.018v-.04Z" transform="translate(1734.814 307.018)" fill="#fff"></path><path id="Trac&#xE9;_48" data-name="Trac&#xE9; 48" d="M48.784,70.064q.132-.141.281-.274a2.666,2.666,0,0,0,.274-.278,1.4,1.4,0,0,0,.2-.313.785.785,0,0,0,.069-.379.315.315,0,0,0-.126-.076.4.4,0,0,0-.138-.019.631.631,0,0,0-.257.071c-.085.044-.161.087-.227.13l0,.012c0,.013-.008.021-.025.022-.03-.033-.053-.061-.072-.084s-.038-.045-.057-.068-.033-.04-.044-.051a.343.343,0,0,1,.116-.135.953.953,0,0,1,.189-.109,1.263,1.263,0,0,1,.215-.074,1.105,1.105,0,0,1,.192-.031.6.6,0,0,1,.34.083.633.633,0,0,1,.247.323c0,.012,0,.023.006.034s0,.024,0,.038a.474.474,0,0,1-.038.191,1.723,1.723,0,0,1-.111.224,2.237,2.237,0,0,1-.158.234c-.059.077-.119.151-.181.22s-.119.131-.174.186-.1.1-.14.128l.106-.008.181-.013.209-.016.19-.012.1,0a.211.211,0,0,1,.049,0c.01,0,.016.006.018.011a.048.048,0,0,1,0,.019l0,0c0,.034,0,.069,0,.1a1.006,1.006,0,0,0,0,.1v.021l.015,0a.017.017,0,0,1,.006.012c0,.009-.007.017-.021.022a.267.267,0,0,1-.057.013l-.075.008-.076,0-.075,0c-.06,0-.121.007-.182.014s-.121.011-.182.013l-.146.006-.146,0-.1,0-.1.007-.005.009-.059,0c-.005.012-.013.018-.022.018a.069.069,0,0,1-.04-.015q-.024-.016-.024-.022a.025.025,0,0,1,.008-.02.029.029,0,0,1,.02-.011l0,0h0c0-.05-.005-.094-.011-.134a.84.84,0,0,0-.025-.128l0-.005v-.005c0-.013.008-.021.028-.022Zm-.032-1.271a.1.1,0,0,1,.016-.035c.007-.011.015-.021.022-.031l-.057.038Zm.055.038a.056.056,0,0,1-.017.013l.013.011Zm.04,1.321v-.018a.073.073,0,0,1-.017.015v0Zm.111-1.509c-.022.016-.044.034-.066.052a.391.391,0,0,0-.056.06l.16-.111h.009a.442.442,0,0,1,.152-.066,1.074,1.074,0,0,1,.152-.017l.1,0v-.023c-.039.006-.076.01-.111.013a1,1,0,0,0-.1.013.617.617,0,0,0-.1.028.436.436,0,0,0-.1.055Zm-.1.2a.192.192,0,0,0,.071-.049.332.332,0,0,1,.068-.057l-.09.036-.028.031a.112.112,0,0,0-.022.038m.037,1.507-.022,0,0,.009Zm.093-.357-.059.055c-.019.019-.038.039-.057.06h.012Zm.769.127-.081.005-.13.009-.149.011-.141.013c-.043,0-.078.008-.106.013s-.04.009-.04.013l0,0-.08.016-.081.019c.018,0,.049,0,.1-.009l.158-.016.189-.019.182-.018.143-.015a.408.408,0,0,0,.068-.011h-.006Zm-.735.025.005,0-.056,0Zm.766-1.188a1.242,1.242,0,0,1-.17.411,1.566,1.566,0,0,1-.292.339l0,.021a.671.671,0,0,0-.073.069l-.066.075-.021.007-.166.178a2.173,2.173,0,0,0,.195-.17c.065-.064.128-.13.19-.2s.119-.142.174-.215.1-.143.149-.21a.238.238,0,0,1,.013-.073c.008-.025.016-.051.026-.076s.019-.051.028-.078a.348.348,0,0,0,.016-.077m-.773-.183.005,0-.01-.025Zm.075,1.3.1-.076.078-.061c.026-.021.052-.044.08-.071s.059-.06.1-.1c-.012.008-.035.028-.071.057s-.075.062-.114.1l-.11.1a.359.359,0,0,0-.057.06m.352-1.6.014,0,.005-.026h-.013l-.016.024a1.02,1.02,0,0,0-.163.032c-.054.014-.106.032-.156.051l.062-.017.1-.026.1-.023a.417.417,0,0,1,.054-.011Zm-.145.2c-.03.007-.057.015-.086.024s-.056.019-.083.03l.082-.023c.027-.007.056-.013.084-.019Zm.4,1.607c-.024,0-.049.005-.075.006l-.073,0-.151.006-.127.009c-.041,0-.082.01-.12.017l0,.005.035,0,.039,0c.057,0,.113,0,.169,0s.112,0,.167,0c.034,0,.066,0,.1-.009l.091-.014-.029,0a.058.058,0,0,1-.028-.01M49.55,69.3a1.43,1.43,0,0,1-.171.234q-.1.108-.2.21l.082-.071c.027-.023.053-.049.08-.075a.2.2,0,0,1,.029-.04l.067-.085c.025-.032.049-.064.071-.1a.628.628,0,0,0,.047-.076m-.209-.693-.015,0c.008,0,.013,0,.015,0m.2.072a.287.287,0,0,0-.106-.022l-.105,0a.673.673,0,0,0,.106.009.663.663,0,0,1,.105.01m.115,1.525a1.131,1.131,0,0,1-.136.011,1.149,1.149,0,0,0-.136.011l.3,0Zm-.26-1.6h.044l-.016-.02-.02.01H49.39Zm.033-.033.018-.01a.491.491,0,0,1,.177.057.378.378,0,0,1,.136.125l0-.005a.652.652,0,0,0-.131-.122.322.322,0,0,0-.167-.06l-.018-.011-.023.013Zm.385.579a1.7,1.7,0,0,1-.148.234c-.057.075-.113.148-.172.22a.914.914,0,0,0,.1-.1.993.993,0,0,0,.075-.1c.023-.035.045-.07.065-.107s.043-.075.068-.117l.005-.006Zm-.245-.618a.336.336,0,0,1,.041.018l.04.022-.01-.02-.036-.01-.036-.01m.128.214a.3.3,0,0,0-.084-.075l0,.023a.322.322,0,0,1,.085.051m-.037.166,0,.036c0,.014,0,.029,0,.041a.065.065,0,0,0,0,.026.786.786,0,0,0-.017.1.735.735,0,0,1-.018.1.557.557,0,0,0,.043-.1.293.293,0,0,0,.011-.087.375.375,0,0,0-.007-.053c0-.018-.008-.039-.013-.061m.051-.04a.2.2,0,0,0-.055-.1V68.8a.212.212,0,0,1,.03.038.2.2,0,0,1,.024.043m-.024-.281-.022-.011.043.035Zm.015-.056.006.005,0,0,.015.016.041.036.042.036a.713.713,0,0,0-.066-.071.407.407,0,0,0-.076-.056Zm.077.406c0-.015,0-.031,0-.047s0-.031,0-.046h-.023a.228.228,0,0,1,0,.033c0,.011,0,.021,0,.031Zm.194,1.244a.125.125,0,0,1-.066.031l-.074.015s0,0,0,.012l.067-.006c.024,0,.047-.005.068-.006Zm-.053-1.34,0,.071a.614.614,0,0,1-.006.071c0-.01.008-.025.013-.045a.218.218,0,0,0,.006-.057.08.08,0,0,0-.011-.04m.056,1.279-.047.017h.018l.028.019Z" transform="translate(1734.307 307.056)" fill="#fff"></path><path id="Trac&#xE9;_49" data-name="Trac&#xE9; 49" d="M52.162,68.273a.64.64,0,0,1,.24.112.836.836,0,0,1,.189.2,1.174,1.174,0,0,1,.132.257,1.416,1.416,0,0,1,.073.29,1.317,1.317,0,0,1,0,.341.953.953,0,0,1-.091.305.659.659,0,0,1-.19.231.608.608,0,0,1-.3.118.809.809,0,0,1-.37-.036.767.767,0,0,1-.278-.176.924.924,0,0,1-.185-.276,1.282,1.282,0,0,1-.093-.337,1.3,1.3,0,0,1,0-.355,1,1,0,0,1,.1-.323.753.753,0,0,1,.193-.245.564.564,0,0,1,.29-.122.778.778,0,0,1,.292.018m-.793,1.109,0,.012,0,.011a.026.026,0,0,1,0,.012v.012c.006.015.012.031.017.046s.011.032.017.049c0-.017-.006-.034-.01-.052a.4.4,0,0,1-.01-.049.124.124,0,0,1,0-.035Zm.067-.728.01,0a.189.189,0,0,0,.022-.07c-.018.023-.035.048-.051.072a.8.8,0,0,0-.041.077Zm.212,1.263L51.63,69.9l0,0s-.005,0-.006,0l-.1-.12-.031-.035c-.01-.012-.02-.023-.029-.036a1,1,0,0,0,.083.116.656.656,0,0,0,.1.1M51.485,68.9a.15.15,0,0,1,.009-.058.24.24,0,0,1,.027-.052l-.013.011-.006,0a.292.292,0,0,0-.027.128Zm.061.55,0,.009,0,.008a.1.1,0,0,0,0-.023Zm.032.275v-.017l-.03-.04,0,0a.363.363,0,0,0,.032.061.18.18,0,0,0,.046.051l-.016-.031Zm0-1.076.02-.032.019-.031-.031.033Zm.05.691-.016-.114c-.006-.049-.011-.1-.013-.151a.4.4,0,0,1,.02-.146l-.013-.007a.277.277,0,0,0-.009.059c0,.025,0,.054,0,.084s0,.063,0,.094.005.061.009.087.005.04.009.056a.274.274,0,0,0,.01.038m.172.434.007-.016a.356.356,0,0,1-.1-.1.444.444,0,0,1-.058-.123.125.125,0,0,1,0,.059l-.037.011c.03.032.061.064.093.094s.064.062.1.092Zm.485-.029a.321.321,0,0,0,.105-.1.436.436,0,0,0,.063-.139.725.725,0,0,0,.025-.159.886.886,0,0,0-.007-.156,1.122,1.122,0,0,0-.056-.223.857.857,0,0,0-.105-.2.558.558,0,0,0-.148-.143.259.259,0,0,0-.18-.039.324.324,0,0,0-.181.083.492.492,0,0,0-.115.165.711.711,0,0,0-.052.214.966.966,0,0,0,0,.228.976.976,0,0,0,.056.216.628.628,0,0,0,.1.178.421.421,0,0,0,.143.114.3.3,0,0,0,.181.026.441.441,0,0,0,.168-.06m-.64-1.251a.041.041,0,0,1,.022-.018l.035-.007.037-.006a.059.059,0,0,0,.028-.014l.02.018H51.8l-.084-.021-.034.01,0,.014Zm0,.247.014-.025-.01.013Zm.246-.45-.043.017a.159.159,0,0,0-.038.026l.022.026a.121.121,0,0,1,.039-.02l.043-.012.006-.018h.042a.2.2,0,0,0-.039-.007c-.017,0-.028-.005-.032-.013m-.046,1.753a.03.03,0,0,0,.022.009Zm.14-.194a.758.758,0,0,1-.134-.06l.006.046.07.029h.017a.09.09,0,0,0,.04-.014m0-1.417h.018l.011-.01-.026-.013a.055.055,0,0,1-.02-.013l-.005,0,0,.014.007.011Zm.19,1.627a.49.49,0,0,0-.077.016.479.479,0,0,1-.076.016.052.052,0,0,0,.021,0l.026,0,.058-.01.049-.008Zm-.123-1.616a.213.213,0,0,1,.046.022.2.2,0,0,0,.046.022l-.014-.019a.169.169,0,0,1-.04-.018.131.131,0,0,0-.042-.014Zm.04,1.514v.006l.075-.011Zm.292-.156a.473.473,0,0,1-.053.042.183.183,0,0,1-.06.029l0,.008.034-.009.038-.006.018,0,.013-.011-.015-.022Zm-.06-1.176-.005-.014c0-.007-.006-.011-.01-.01h0Zm.1,1.072a.432.432,0,0,1-.035.035l-.036.032a.22.22,0,0,0,.038-.031l.033-.036m.054-.744v-.018l-.027-.042Zm-.015.91.005.022.01-.009.008-.011.012.016.017-.049a.178.178,0,0,1-.037.037Zm.077-.651v.016a.048.048,0,0,0,0,.016c0,.021.008.041.013.061a.421.421,0,0,1,.013.06.2.2,0,0,1-.007.1l0-.006.025.008c-.011-.047-.018-.085-.023-.115s-.01-.057-.016-.084-.009-.044-.01-.054m.01-.295a.31.31,0,0,1,.048.093.558.558,0,0,1,.024.107.383.383,0,0,1,0,.041c0,.013,0,.026,0,.04q0-.032,0-.065c0-.021,0-.042-.005-.063a.4.4,0,0,0-.022-.087.254.254,0,0,0-.048-.078Zm.039-.047a.034.034,0,0,0-.005-.016l0,0,0,.01,0,.009m.11.841a.19.19,0,0,1,0-.04.321.321,0,0,0,.008-.04.713.713,0,0,1-.04.088q-.022.043-.046.086l.02.015a.265.265,0,0,0,.054-.11m-.049-.762.018.039a.168.168,0,0,1,0-.031c0-.01,0-.022,0-.033a.158.158,0,0,0-.007-.033Zm.032.3c0,.022,0,.043,0,.063a.279.279,0,0,1-.009.061.074.074,0,0,1,.01.028l0,.012a.347.347,0,0,0,.007-.08.4.4,0,0,0-.009-.084m.065-.052a.151.151,0,0,0,0,.04V69.2Z" transform="translate(1734.042 307.073)" fill="#fff"></path><path id="Trac&#xE9;_50" data-name="Trac&#xE9; 50" d="M54.111,68.249a.1.1,0,0,1-.051-.019.812.812,0,0,1-.066-.047.432.432,0,0,1-.058-.055.126.126,0,0,1-.029-.046c0-.005,0-.009.006-.01a.061.061,0,0,1,.031,0,.144.144,0,0,1,.037-.059c.023-.027.049-.057.076-.087l.083-.091a.459.459,0,0,0,.055-.067l.106-.025c.04-.009.079-.016.117-.022a.72.72,0,0,1,.1-.009c.027,0,.042.005.045.016s0,.011-.009.014c.035.16.066.319.1.477s.061.317.1.477c.026.111.057.217.092.32s.066.207.1.313l.08-.02.083-.021.038-.009.044-.007.031.013.012.014a.083.083,0,0,0,0,.044.284.284,0,0,0,.022.062.327.327,0,0,1,.022.06.059.059,0,0,1,0,.041.067.067,0,0,1-.049.03l-.135.034c-.1.026-.192.055-.287.085s-.19.057-.288.08l-.049.013a.266.266,0,0,1-.049.011.192.192,0,0,1-.04,0,.022.022,0,0,1-.019-.016.032.032,0,0,1,0-.019.7.7,0,0,0-.031-.072.425.425,0,0,1-.033-.092c-.008-.033,0-.052.014-.056l.015-.013.259-.06,0-.029-.006-.021-.011-.04-.009-.04-.005-.023-.009-.01-.006-.031-.009-.013h.005c-.005-.022-.011-.045-.017-.066s-.012-.044-.017-.068c-.032-.137-.061-.274-.088-.411s-.057-.275-.088-.411l-.031-.132a.127.127,0,0,0-.02.026.29.29,0,0,1-.03.04l-.039.039a.092.092,0,0,1-.038.022.034.034,0,0,1-.04-.017m-.038-.087.009-.025a.018.018,0,0,1-.009.008l-.009,0Zm.007-.084,0,0,0,0Zm.035-.111.033-.052-.059.058.011-.006Zm.016.251h.005a.01.01,0,0,1,0-.009l-.011.005Zm.037-.139-.035.071.039-.03Zm.013-.129-.013.019a.051.051,0,0,0-.011.019l.02-.019Zm.075.048a.247.247,0,0,0-.033.078l.021-.016a.056.056,0,0,1,0-.03L54.255,68m.031-.179-.04.077a.4.4,0,0,0,.033-.047.2.2,0,0,1,.033-.043l.006-.013-.034.008Zm.041.244a.02.02,0,0,1,0-.018l.01-.014-.011-.036,0,.006,0,.008,0,.005a.021.021,0,0,1-.009.022c-.007.005-.011.011-.01.014Zm.036,1.576a.2.2,0,0,1,.006-.027.034.034,0,0,1,.013-.019l-.04.009Zm-.005-1.7,0-.028c0-.008,0-.017-.005-.027a.076.076,0,0,0,0,.024.1.1,0,0,1,0,.023Zm.012,1.709.012.026a.172.172,0,0,1,.01.028l.01-.021.029-.021-.031,0a.084.084,0,0,1-.03-.011m0-1.854a.014.014,0,0,0,0-.009Zm.11.614c0-.018-.005-.035-.009-.051s-.008-.034-.012-.051c-.01-.04-.02-.081-.031-.121s-.024-.081-.038-.123h-.015c.016.059.033.117.053.172s.036.114.052.173m-.022.168a.444.444,0,0,0-.017-.11c-.009-.04-.02-.084-.032-.127s-.022-.075-.028-.093a.16.16,0,0,0,0,.029l.006.028c.006.028.014.057.023.086s.016.059.023.09a.588.588,0,0,1,.016.109l.008.007Zm.054,1a.128.128,0,0,0-.023.007l-.028.007a.119.119,0,0,1-.036,0l-.013.021.046-.011,0-.006ZM54.5,68.274c-.006-.044-.013-.088-.023-.134s-.018-.089-.026-.133a.122.122,0,0,1-.022-.042l-.005.04.012.012c.01.043.021.086.033.128s.022.085.032.128m-.064-.393,0,.013.052-.012Zm.164,1.727-.112.025.065.006Zm-.04-.578c-.005-.04-.012-.08-.02-.119s-.017-.079-.026-.119H54.5c0,.017.005.035.009.053s.008.035.013.052a.97.97,0,0,0,.04.132m-.051-1.251L54.5,67.8l.014.026Zm.031.194,0,.015.009-.038-.012,0Zm0,1.117.016.071.008-.005Zm.013-1.068.04.177.006.013.007.031-.054-.234Zm.011.58a.032.032,0,0,0,0,.018.065.065,0,0,0,0-.018m.006.878q0,.012-.005.016l.02,0,0-.014Zm.024-.651c.007.031.015.06.023.092s.016.06.025.09l-.015-.065-.013-.058a.32.32,0,0,0-.02-.058m.067.577c0-.022-.005-.043-.009-.066s-.007-.043-.012-.065a.458.458,0,0,0-.014-.048c-.006-.016-.013-.032-.021-.049.005.022.01.044.013.066s.009.043.014.066.008.033.013.049.01.031.015.046m-.042-.3,0,.015.007,0Zm.052.367,0-.005-.013.009a.027.027,0,0,1-.028-.012l0,.018Zm-.005-.857c0-.01,0-.019,0-.029s0-.019-.006-.028-.008-.03-.013-.045l-.012-.044c0,.015,0,.031.007.049s.006.034.01.05Zm.007,1.023a.079.079,0,0,0-.036.017l.314-.094-.137.039-.14.039m.085-.257c-.008-.027-.015-.051-.022-.075a.6.6,0,0,0-.025-.074l.035.152Zm-.02-.517c.007.04.015.08.023.12l.027.122H54.8c-.01-.043-.021-.084-.031-.123s-.022-.078-.031-.119m.138.48a.2.2,0,0,1-.022-.033l0,.043Zm.079.035.031.016.029-.006L55,69.36a.156.156,0,0,1-.033.01l-.03.007v0Zm.14.1h-.051l-.066.03.057-.013.015,0,.011-.008Zm.1-.067,0-.012a.052.052,0,0,1-.023.014Zm-.014.08h.012l.012,0,0-.008Z" transform="translate(1733.775 307.127)" fill="#fff"></path><path id="Trac&#xE9;_51" data-name="Trac&#xE9; 51" d="M57.4,67.458a.029.029,0,0,1,.014-.013c.011,0,.02,0,.025.019a.143.143,0,0,1,.005.044.162.162,0,0,0,.009.054.637.637,0,0,0,.047.106l.05.1v.012c0,.012,0,.019-.014.023a.026.026,0,0,1-.02,0l-.005.011-.057.024a.461.461,0,0,0-.057.027c0,.013.013.036.025.069l.043.122c.016.049.034.1.054.155s.039.111.057.167c.05.148.085.255.106.323s.02.1,0,.111c-.005,0-.012,0-.018-.008q-.057.019-.108.04c-.035.015-.07.028-.105.04a.22.22,0,0,1-.032-.018.09.09,0,0,1-.016-.014l-.012-.017a.252.252,0,0,0-.025-.029c-.029-.085-.057-.172-.084-.261s-.056-.177-.086-.267-.07-.2-.109-.295l-.227.084c-.074.028-.147.059-.22.094l-.049.024-.075.034-.083.036c-.029.012-.055.022-.079.03a.206.206,0,0,1-.073.015.03.03,0,0,1-.029-.021.023.023,0,0,1,.005-.02l0-.036a.4.4,0,0,0-.017-.07c-.008-.023-.017-.049-.025-.074-.045-.133-.093-.257-.145-.373s-.1-.234-.139-.356a.023.023,0,0,1,0-.019.021.021,0,0,1,.015-.014s.009,0,.016,0l.017-.006.038-.008.04-.012.061-.022.058-.022a.421.421,0,0,1,.076-.019.031.031,0,0,1,.037.021c0,.009,0,.016-.015.021a.446.446,0,0,0,.048.1.521.521,0,0,1,.049.106c.015.044.028.088.04.131s.025.088.04.131c0,.013.008.026.013.039a.36.36,0,0,0,.017.04,1.507,1.507,0,0,1,.151-.061l.1-.033.1-.032.072-.024a.573.573,0,0,0,.069-.03c-.009-.025-.017-.051-.024-.075s-.015-.049-.022-.073a.842.842,0,0,0-.089-.188.823.823,0,0,1-.085-.18c-.01,0-.014-.006-.016-.01s.01-.022.038-.037a.874.874,0,0,1,.1-.047l.1-.041.057-.021,0-.006,0-.007,0,0c.007,0,.018.007.031.031a.665.665,0,0,1,.046.089c.017.037.033.079.05.125s.032.09.046.132c.009.025.017.05.024.075s.013.044.019.06l.018.055.1-.04.02,0Zm-1.374-.1L56,67.377l.045.07Zm.049,0H56.1a.171.171,0,0,1,.045.07.351.351,0,0,1,.018.081.444.444,0,0,0,.018.081l.006.019a.358.358,0,0,0-.025-.136.638.638,0,0,1-.04-.131v-.006Zm.133.552c-.019-.039-.036-.076-.051-.115s-.03-.078-.043-.119l0,.013.079.232Zm-.049-.587a.119.119,0,0,1,.02.036.529.529,0,0,1,.02.054l.021.059a.334.334,0,0,0,.018.044.816.816,0,0,0-.029-.1c-.011-.034-.021-.067-.028-.1Zm.031.394c.012.035.024.069.037.1s.027.069.043.1l0,0a.845.845,0,0,0-.04-.136.236.236,0,0,1-.014-.135l-.01-.009v.028l0,.028Zm.07-.087a.027.027,0,0,1,.008.015.567.567,0,0,1,.022.105.612.612,0,0,0,.026.119.124.124,0,0,0,.012.026l.021-.013c-.013-.036-.023-.073-.034-.11s-.022-.074-.034-.11l-.017-.052Zm.039.62.026-.005-.022-.011Zm.037-.74-.018-.042.006.047Zm.056.5c.109-.055.219-.1.332-.147s.225-.092.336-.146l0,0q-.172.062-.34.135c-.111.049-.222.1-.331.15Zm.034.1c.12-.051.242-.1.366-.138a3.379,3.379,0,0,0,.361-.147l-.016-.013-.006,0a.068.068,0,0,0-.023.014l-.013,0-.022.005c-.031.011-.08.03-.145.056s-.132.053-.2.083l-.189.082q-.086.039-.113.054m.84-.266-.061.012a3.316,3.316,0,0,1-.353.139,3.359,3.359,0,0,0-.349.137l-.014.03c.054-.024.114-.05.181-.078L56.878,68l.208-.077c.068-.025.13-.048.186-.066Zm-.759.034.022-.01.039-.02.053-.023c-.023.005-.041.011-.056.015l-.04.014-.022.007Zm.3-.745a.184.184,0,0,0,.034.065c-.006-.012-.012-.023-.017-.035a.117.117,0,0,0-.017-.03m.036-.031.019.028-.005-.035Zm.026.631a.04.04,0,0,1,.021,0l0-.008Zm.039-.661-.016.008c.008.016.015.034.023.055a.251.251,0,0,0,.03.056.237.237,0,0,1-.012-.082Zm.087.488c0-.022-.007-.041-.012-.061s-.009-.04-.014-.061a.017.017,0,0,0-.013-.011Zm.013-.531a.157.157,0,0,1-.025.012l-.024.008.007.01.02.005.031.035a.109.109,0,0,1,0-.03.049.049,0,0,0,0-.028l0-.006,0-.006m.049.263-.029-.052c-.009-.019-.018-.037-.025-.054h0a.268.268,0,0,1,.017.041c.005.013.01.028.014.042l.012.033.005,0Zm-.009.3h0l0-.013Zm.051.1h0a.006.006,0,0,0,0,.008c.018-.009.036-.016.054-.023l.051-.019.013-.013v-.006l-.034.018a.2.2,0,0,1-.035.014.079.079,0,0,1-.027.006Zm.049-.12-.019-.033-.019-.032a.167.167,0,0,0,0,.038l.008.037Zm-.022.4c.01.025.02.05.028.075a.4.4,0,0,0,.034.072l-.009-.022a.212.212,0,0,1-.011-.025c-.006-.019-.012-.036-.015-.051s-.01-.033-.016-.051Zm.032-.458-.01-.037,0,.005Zm.025.436a.335.335,0,0,1,.034.073l.024.072.049.155q-.024-.071-.043-.146c-.013-.049-.026-.1-.04-.146Zm.051-.245v0l-.005,0-.018.012-.013.008Zm.043.375-.008-.022a.139.139,0,0,0-.03-.054l.027.083Zm0-.4,0,0,0,0m.018.292,0,0-.005.013.015.026Zm0-.391a.026.026,0,0,1,.017-.015.028.028,0,0,1,.014,0l.022-.009a.1.1,0,0,1,.022-.009l0,0-.075.025Zm.028.249-.011,0,0,.011.015-.008Zm.1-.2-.027.022a.225.225,0,0,0-.025.026l.05-.017.016,0Zm-.038.192.023-.013a.03.03,0,0,1-.012.006.029.029,0,0,0-.012.007m.082,1.007c-.01-.029-.021-.057-.031-.085a.691.691,0,0,0-.04-.083l-.007,0,0,.017,0,.017.015.04a.417.417,0,0,1,.015.04c0,.011.007.022.012.032a.081.081,0,0,1,0,.032Zm-.01-.571a.672.672,0,0,1,.033.1.956.956,0,0,0,.03.1l.017,0Zm.06.372.015.039a.349.349,0,0,0,.02.035Zm.009.146,0,.029.017-.005Zm.117-.015a.143.143,0,0,1-.007-.025.162.162,0,0,0-.008-.028c-.012-.036-.027-.073-.043-.11a1,1,0,0,1-.043-.11.838.838,0,0,0,.043.141.368.368,0,0,1,.028.143Z" transform="translate(1733.57 307.205)" fill="#fff"></path><path id="Trac&#xE9;_52" data-name="Trac&#xE9; 52" d="M32.821,65.692a.28.28,0,0,1-.124.237.468.468,0,0,1-.252.07.6.6,0,0,1-.156-.022.632.632,0,0,1-.144-.057.342.342,0,0,1-.1-.084A.172.172,0,0,1,32,65.73a.189.189,0,0,1,.045-.108.522.522,0,0,1-.017-.128.3.3,0,0,1,.108-.261.376.376,0,0,1,.223-.078.328.328,0,0,1,.141.03.184.184,0,0,1,.091.084.8.8,0,0,1,.174.127.248.248,0,0,1,.091.185.185.185,0,0,1-.039.113m-.508.178c-.032-.029-.064-.054-.093-.075l-.072-.051a.107.107,0,0,0-.044-.024l-.005.005a.112.112,0,0,0,.044.065.435.435,0,0,0,.088.057.714.714,0,0,0,.1.04.312.312,0,0,0,.091.016h.022l-.1-.016Zm-.093-.41a.334.334,0,0,1,.105-.051.45.45,0,0,1,.137-.023.171.171,0,0,1,.08.016.336.336,0,0,1,.06.04l.058.046a.255.255,0,0,0,.072.037.574.574,0,0,0-.088-.112.185.185,0,0,0-.128-.07h-.011a.261.261,0,0,0-.181,0,.212.212,0,0,1-.066.015c-.007,0-.012,0-.012-.01a.172.172,0,0,1,.022-.059.126.126,0,0,0-.041.03l-.041.04.005.055Zm.137.076a.159.159,0,0,0-.057.03l-.053.04a.252.252,0,0,0,.022.081l.039.016v0c-.03,0-.044-.017-.044-.039a.108.108,0,0,1,.028-.067.146.146,0,0,1,.055-.046Zm.149.123c-.011.032-.022.049-.033.049s-.023-.008-.039-.024a.087.087,0,0,0-.066-.024.142.142,0,0,0-.066.022h.011a.5.5,0,0,0,.075.04.225.225,0,0,0,.091.024c.03,0,.045-.011.045-.032a.135.135,0,0,0-.017-.054" transform="translate(1736.001 307.387)" fill="#fff"></path><path id="Trac&#xE9;_53" data-name="Trac&#xE9; 53" d="M59.684,67.487a.28.28,0,0,1-.124.237.468.468,0,0,1-.252.07.6.6,0,0,1-.156-.022.631.631,0,0,1-.144-.057.342.342,0,0,1-.1-.084.172.172,0,0,1-.039-.108.189.189,0,0,1,.045-.108.522.522,0,0,1-.017-.128A.3.3,0,0,1,59,67.027a.376.376,0,0,1,.223-.078.328.328,0,0,1,.141.03.184.184,0,0,1,.091.084.8.8,0,0,1,.174.127.248.248,0,0,1,.091.185.185.185,0,0,1-.039.113m-.508.178c-.032-.029-.064-.054-.093-.075l-.072-.051a.107.107,0,0,0-.044-.024l-.005.005a.112.112,0,0,0,.044.065.435.435,0,0,0,.088.057.716.716,0,0,0,.1.04.312.312,0,0,0,.091.016h.022l-.1-.016Zm-.093-.41a.335.335,0,0,1,.105-.051.451.451,0,0,1,.137-.023.171.171,0,0,1,.08.016.337.337,0,0,1,.06.04l.058.046a.255.255,0,0,0,.072.037.574.574,0,0,0-.088-.112.185.185,0,0,0-.128-.07h-.011a.261.261,0,0,0-.181,0,.212.212,0,0,1-.066.015c-.007,0-.012,0-.012-.01a.171.171,0,0,1,.022-.059.126.126,0,0,0-.041.03l-.041.04.005.055Zm.137.076a.159.159,0,0,0-.058.03l-.053.04a.252.252,0,0,0,.022.081l.039.016v0c-.03,0-.044-.017-.044-.039a.108.108,0,0,1,.028-.067.146.146,0,0,1,.055-.046Zm.149.123c-.011.032-.022.049-.033.049s-.023-.008-.039-.024a.087.087,0,0,0-.066-.024.142.142,0,0,0-.066.022h.011a.5.5,0,0,0,.075.04.225.225,0,0,0,.091.024c.03,0,.045-.011.045-.032a.135.135,0,0,0-.017-.054" transform="translate(1733.271 307.205)" fill="#fff"></path></g></svg>